<?xml version="1.0" encoding="UTF-8" standalone="no"?>
<!DOCTYPE svg PUBLIC "-//W3C//DTD SVG 1.1//EN"
 "http://www.w3.org/Graphics/SVG/1.1/DTD/svg11.dtd">
<!-- Generated by graphviz version 2.42.4 (0)
 -->
<!-- Pages: 1 -->
<svg width="905pt" height="698pt"
 viewBox="0.00 0.00 905.00 698.00" xmlns="http://www.w3.org/2000/svg" xmlns:xlink="http://www.w3.org/1999/xlink">
<g id="graph0" class="graph" transform="scale(1 1) rotate(0) translate(4 694)">
<polygon fill="#ffffff" stroke="transparent" points="-4,4 -4,-694 901,-694 901,4 -4,4"/>
<!-- CN9 -->
<g id="node1" class="node">
<title>CN9</title>
<polygon fill="#ffffff" stroke="black" points="161,-239 0,-239 0,-55 161,-55 161,-239"/>
<polygon fill="none" stroke="black" points="0.5,-216 0.5,-239 161.5,-239 161.5,-216 0.5,-216"/>
<text text-anchor="start" x="67" y="-223.8" font-family="arial" font-size="14.00">CN9</text>
<polygon fill="none" stroke="black" points="0.5,-193 0.5,-216 72.5,-216 72.5,-193 0.5,-193"/>
<text text-anchor="start" x="4.5" y="-200.8" font-family="arial" font-size="14.00">PinHeader</text>
<polygon fill="none" stroke="black" points="72.5,-193 72.5,-216 122.5,-216 122.5,-193 72.5,-193"/>
<text text-anchor="start" x="76.5" y="-200.8" font-family="arial" font-size="14.00">female</text>
<polygon fill="none" stroke="black" points="122.5,-193 122.5,-216 161.5,-216 161.5,-193 122.5,-193"/>
<text text-anchor="start" x="126.5" y="-200.8" font-family="arial" font-size="14.00">6&#45;pin</text>
<polygon fill="none" stroke="black" points="0.5,-170 0.5,-193 113.5,-193 113.5,-170 0.5,-170"/>
<text text-anchor="start" x="24.5" y="-177.8" font-family="arial" font-size="14.00">SPI3_SCK</text>
<polygon fill="none" stroke="black" points="113.5,-170 113.5,-193 161.5,-193 161.5,-170 113.5,-170"/>
<text text-anchor="start" x="133.5" y="-177.8" font-family="arial" font-size="14.00">1</text>
<polygon fill="none" stroke="black" points="0.5,-147 0.5,-170 113.5,-170 113.5,-147 0.5,-147"/>
<text text-anchor="start" x="20.5" y="-154.8" font-family="arial" font-size="14.00">SPI3_MISO</text>
<polygon fill="none" stroke="black" points="113.5,-147 113.5,-170 161.5,-170 161.5,-147 113.5,-147"/>
<text text-anchor="start" x="133.5" y="-154.8" font-family="arial" font-size="14.00">2</text>
<polygon fill="none" stroke="black" points="0.5,-124 0.5,-147 113.5,-147 113.5,-124 0.5,-124"/>
<text text-anchor="start" x="20.5" y="-131.8" font-family="arial" font-size="14.00">SPI3_MOSI</text>
<polygon fill="none" stroke="black" points="113.5,-124 113.5,-147 161.5,-147 161.5,-124 113.5,-124"/>
<text text-anchor="start" x="133.5" y="-131.8" font-family="arial" font-size="14.00">3</text>
<polygon fill="none" stroke="black" points="0.5,-101 0.5,-124 113.5,-124 113.5,-101 0.5,-101"/>
<text text-anchor="start" x="47.5" y="-108.8" font-family="arial" font-size="14.00">CS</text>
<polygon fill="none" stroke="black" points="113.5,-101 113.5,-124 161.5,-124 161.5,-101 113.5,-101"/>
<text text-anchor="start" x="133.5" y="-108.8" font-family="arial" font-size="14.00">4</text>
<polygon fill="none" stroke="black" points="0.5,-78 0.5,-101 113.5,-101 113.5,-78 0.5,-78"/>
<text text-anchor="start" x="41.5" y="-85.8" font-family="arial" font-size="14.00">GND</text>
<polygon fill="none" stroke="black" points="113.5,-78 113.5,-101 161.5,-101 161.5,-78 113.5,-78"/>
<text text-anchor="start" x="133.5" y="-85.8" font-family="arial" font-size="14.00">5</text>
<polygon fill="none" stroke="black" points="0.5,-55 0.5,-78 113.5,-78 113.5,-55 0.5,-55"/>
<text text-anchor="start" x="42.5" y="-62.8" font-family="arial" font-size="14.00">VCC</text>
<polygon fill="none" stroke="black" points="113.5,-55 113.5,-78 161.5,-78 161.5,-55 113.5,-55"/>
<text text-anchor="start" x="133.5" y="-62.8" font-family="arial" font-size="14.00">6</text>
</g>
<!-- W1 -->
<g id="node6" class="node">
<title>W1</title>
<polygon fill="#ffffff" stroke="black" points="592,-274 305,-274 305,0 592,0 592,-274"/>
<polygon fill="none" stroke="black" points="305.5,-251 305.5,-274 592.5,-274 592.5,-251 305.5,-251"/>
<text text-anchor="start" x="438" y="-258.8" font-family="arial" font-size="14.00">W1</text>
<polygon fill="none" stroke="black" points="305.5,-228 305.5,-251 359.5,-251 359.5,-228 305.5,-228"/>
<text text-anchor="start" x="325" y="-235.8" font-family="arial" font-size="14.00">6x</text>
<polygon fill="none" stroke="black" points="359.5,-228 359.5,-251 457.5,-251 457.5,-228 359.5,-228"/>
<text text-anchor="start" x="379" y="-235.8" font-family="arial" font-size="14.00">0.25 mm²</text>
<polygon fill="none" stroke="black" points="457.5,-228 457.5,-251 518.5,-251 518.5,-228 457.5,-228"/>
<text text-anchor="start" x="477" y="-235.8" font-family="arial" font-size="14.00">+ S</text>
<polygon fill="none" stroke="black" points="518.5,-228 518.5,-251 592.5,-251 592.5,-228 518.5,-228"/>
<text text-anchor="start" x="538" y="-235.8" font-family="arial" font-size="14.00">0.2 m</text>
<text text-anchor="start" x="363" y="-214.8" font-family="arial" font-size="14.00"> </text>
<text text-anchor="start" x="311.5" y="-195.8" font-family="arial" font-size="14.00">CN9:1:SPI3_SCK</text>
<text text-anchor="start" x="426.5" y="-195.8" font-family="arial" font-size="14.00"> &#160;&#160;&#160;&#160;1:WH &#160;&#160;&#160;</text>
<text text-anchor="start" x="506.5" y="-195.8" font-family="arial" font-size="14.00">FRAM:1:VIN</text>
<polygon fill="#000000" stroke="transparent" points="305.5,-188 305.5,-190 592.5,-190 592.5,-188 305.5,-188"/>
<polygon fill="#ffffff" stroke="transparent" points="305.5,-186 305.5,-188 592.5,-188 592.5,-186 305.5,-186"/>
<polygon fill="#000000" stroke="transparent" points="305.5,-184 305.5,-186 592.5,-186 592.5,-184 305.5,-184"/>
<text text-anchor="start" x="307.5" y="-170.8" font-family="arial" font-size="14.00">CN9:2:SPI3_MISO</text>
<text text-anchor="start" x="429" y="-170.8" font-family="arial" font-size="14.00"> &#160;&#160;&#160;&#160;2:BN &#160;&#160;&#160;</text>
<text text-anchor="start" x="502.5" y="-170.8" font-family="arial" font-size="14.00">FRAM:3:GND</text>
<polygon fill="#000000" stroke="transparent" points="305.5,-163 305.5,-165 592.5,-165 592.5,-163 305.5,-163"/>
<polygon fill="#895956" stroke="transparent" points="305.5,-161 305.5,-163 592.5,-163 592.5,-161 305.5,-161"/>
<polygon fill="#000000" stroke="transparent" points="305.5,-159 305.5,-161 592.5,-161 592.5,-159 305.5,-159"/>
<text text-anchor="start" x="307.5" y="-145.8" font-family="arial" font-size="14.00">CN9:3:SPI3_MOSI</text>
<text text-anchor="start" x="427.5" y="-145.8" font-family="arial" font-size="14.00"> &#160;&#160;&#160;&#160;3:GN &#160;&#160;&#160;</text>
<text text-anchor="start" x="504" y="-145.8" font-family="arial" font-size="14.00">FRAM:4:SCK</text>
<polygon fill="#000000" stroke="transparent" points="305.5,-138 305.5,-140 592.5,-140 592.5,-138 305.5,-138"/>
<polygon fill="#00ff00" stroke="transparent" points="305.5,-136 305.5,-138 592.5,-138 592.5,-136 305.5,-136"/>
<polygon fill="#000000" stroke="transparent" points="305.5,-134 305.5,-136 592.5,-136 592.5,-134 305.5,-134"/>
<text text-anchor="start" x="334.5" y="-120.8" font-family="arial" font-size="14.00">CN9:4:CS</text>
<text text-anchor="start" x="429" y="-120.8" font-family="arial" font-size="14.00"> &#160;&#160;&#160;&#160;4:YE &#160;&#160;&#160;</text>
<text text-anchor="start" x="499.5" y="-120.8" font-family="arial" font-size="14.00">FRAM:5:MISO</text>
<polygon fill="#000000" stroke="transparent" points="305.5,-113 305.5,-115 592.5,-115 592.5,-113 305.5,-113"/>
<polygon fill="#ffff00" stroke="transparent" points="305.5,-111 305.5,-113 592.5,-113 592.5,-111 305.5,-111"/>
<polygon fill="#000000" stroke="transparent" points="305.5,-109 305.5,-111 592.5,-111 592.5,-109 305.5,-109"/>
<text text-anchor="start" x="328.5" y="-95.8" font-family="arial" font-size="14.00">CN9:5:GND</text>
<text text-anchor="start" x="428" y="-95.8" font-family="arial" font-size="14.00"> &#160;&#160;&#160;&#160;5:GY &#160;&#160;&#160;</text>
<text text-anchor="start" x="499.5" y="-95.8" font-family="arial" font-size="14.00">FRAM:6:MOSI</text>
<polygon fill="#000000" stroke="transparent" points="305.5,-88 305.5,-90 592.5,-90 592.5,-88 305.5,-88"/>
<polygon fill="#999999" stroke="transparent" points="305.5,-86 305.5,-88 592.5,-88 592.5,-86 305.5,-86"/>
<polygon fill="#000000" stroke="transparent" points="305.5,-84 305.5,-86 592.5,-86 592.5,-84 305.5,-84"/>
<text text-anchor="start" x="329.5" y="-70.8" font-family="arial" font-size="14.00">CN9:6:VCC</text>
<text text-anchor="start" x="429" y="-70.8" font-family="arial" font-size="14.00"> &#160;&#160;&#160;&#160;6:PK &#160;&#160;&#160;</text>
<text text-anchor="start" x="508.5" y="-70.8" font-family="arial" font-size="14.00">FRAM:7:CS</text>
<polygon fill="#000000" stroke="transparent" points="305.5,-63 305.5,-65 592.5,-65 592.5,-63 305.5,-63"/>
<polygon fill="#ff66cc" stroke="transparent" points="305.5,-61 305.5,-63 592.5,-63 592.5,-61 305.5,-61"/>
<polygon fill="#000000" stroke="transparent" points="305.5,-59 305.5,-61 592.5,-61 592.5,-59 305.5,-59"/>
<text text-anchor="start" x="363" y="-45.8" font-family="arial" font-size="14.00"> </text>
<text text-anchor="start" x="328.5" y="-26.8" font-family="arial" font-size="14.00">CN9:5:GND</text>
<text text-anchor="start" x="442" y="-26.8" font-family="arial" font-size="14.00">Shield</text>
<polygon fill="#000000" stroke="transparent" points="305.5,-19 305.5,-21 592.5,-21 592.5,-19 305.5,-19"/>
<text text-anchor="start" x="363" y="-5.8" font-family="arial" font-size="14.00"> </text>
</g>
<!-- CN9&#45;&#45;W1 -->
<g id="edge1" class="edge">
<title>CN9:e&#45;&#45;W1:w</title>
<path fill="none" stroke="#000000" stroke-width="2" d="M161,-180C225.64,-180.09 241.56,-185.09 305,-185"/>
<path fill="none" stroke="#ffffff" stroke-width="2" d="M161,-182C225.04,-182 240.96,-187 305,-187"/>
<path fill="none" stroke="#000000" stroke-width="2" d="M161,-184C224.44,-183.91 240.36,-188.91 305,-189"/>
</g>
<!-- CN9&#45;&#45;W1 -->
<g id="edge3" class="edge">
<title>CN9:e&#45;&#45;W1:w</title>
<path fill="none" stroke="#000000" stroke-width="2" d="M161,-157C225.38,-157.03 241.36,-160.03 305,-160"/>
<path fill="none" stroke="#895956" stroke-width="2" d="M161,-159C225.01,-159 240.99,-162 305,-162"/>
<path fill="none" stroke="#000000" stroke-width="2" d="M161,-161C224.64,-160.97 240.62,-163.97 305,-164"/>
</g>
<!-- CN9&#45;&#45;W1 -->
<g id="edge5" class="edge">
<title>CN9:e&#45;&#45;W1:w</title>
<path fill="none" stroke="#000000" stroke-width="2" d="M161,-133C225.25,-133.02 241.24,-135.02 305,-135"/>
<path fill="none" stroke="#00ff00" stroke-width="2" d="M161,-135C225.01,-135 240.99,-137 305,-137"/>
<path fill="none" stroke="#000000" stroke-width="2" d="M161,-137C224.76,-136.98 240.75,-138.98 305,-139"/>
</g>
<!-- CN9&#45;&#45;W1 -->
<g id="edge7" class="edge">
<title>CN9:e&#45;&#45;W1:w</title>
<path fill="none" stroke="#000000" stroke-width="2" d="M161,-110C225,-110 241,-110 305,-110"/>
<path fill="none" stroke="#ffff00" stroke-width="2" d="M161,-112C225,-112 241,-112 305,-112"/>
<path fill="none" stroke="#000000" stroke-width="2" d="M161,-114C225,-114 241,-114 305,-114"/>
</g>
<!-- CN9&#45;&#45;W1 -->
<g id="edge9" class="edge">
<title>CN9:e&#45;&#45;W1:w</title>
<path fill="none" stroke="#000000" stroke-width="2" d="M161,-87C224.76,-87.02 240.75,-85.02 305,-85"/>
<path fill="none" stroke="#999999" stroke-width="2" d="M161,-89C225.01,-89 240.99,-87 305,-87"/>
<path fill="none" stroke="#000000" stroke-width="2" d="M161,-91C225.25,-90.98 241.24,-88.98 305,-89"/>
</g>
<!-- CN9&#45;&#45;W1 -->
<g id="edge11" class="edge">
<title>CN9:e&#45;&#45;W1:w</title>
<path fill="none" stroke="#000000" stroke-width="2" d="M161,-64C224.54,-64.06 240.49,-60.06 305,-60"/>
<path fill="none" stroke="#ff66cc" stroke-width="2" d="M161,-66C225.02,-66 240.98,-62 305,-62"/>
<path fill="none" stroke="#000000" stroke-width="2" d="M161,-68C225.51,-67.94 241.46,-63.94 305,-64"/>
</g>
<!-- CN9&#45;&#45;W1 -->
<g id="edge13" class="edge">
<title>CN9:e&#45;&#45;W1:w</title>
<path fill="none" stroke="#000000" stroke-width="2" d="M161,-89C231.97,-89 234.03,-20 305,-20"/>
</g>
<!-- FRAM -->
<g id="node2" class="node">
<title>FRAM</title>
<polygon fill="#ffffff" stroke="black" points="891.5,-261.5 741.5,-261.5 741.5,-8.5 891.5,-8.5 891.5,-261.5"/>
<polygon fill="none" stroke="black" points="741.5,-238 741.5,-261 891.5,-261 891.5,-238 741.5,-238"/>
<text text-anchor="start" x="796.5" y="-245.8" font-family="arial" font-size="14.00">FRAM</text>
<polygon fill="none" stroke="black" points="741.5,-215 741.5,-238 813.5,-238 813.5,-215 741.5,-215"/>
<text text-anchor="start" x="745.5" y="-222.8" font-family="arial" font-size="14.00">PinHeader</text>
<polygon fill="none" stroke="black" points="813.5,-215 813.5,-238 852.5,-238 852.5,-215 813.5,-215"/>
<text text-anchor="start" x="817.5" y="-222.8" font-family="arial" font-size="14.00">male</text>
<polygon fill="none" stroke="black" points="852.5,-215 852.5,-238 891.5,-238 891.5,-215 852.5,-215"/>
<text text-anchor="start" x="856.5" y="-222.8" font-family="arial" font-size="14.00">9&#45;pin</text>
<polygon fill="none" stroke="black" points="741.5,-192 741.5,-215 797.5,-215 797.5,-192 741.5,-192"/>
<text text-anchor="start" x="765.5" y="-199.8" font-family="arial" font-size="14.00">1</text>
<polygon fill="none" stroke="black" points="797.5,-192 797.5,-215 891.5,-215 891.5,-192 797.5,-192"/>
<text text-anchor="start" x="833" y="-199.8" font-family="arial" font-size="14.00">VIN</text>
<polygon fill="none" stroke="black" points="741.5,-169 741.5,-192 797.5,-192 797.5,-169 741.5,-169"/>
<text text-anchor="start" x="765.5" y="-176.8" font-family="arial" font-size="14.00">2</text>
<polygon fill="none" stroke="black" points="797.5,-169 797.5,-192 891.5,-192 891.5,-169 797.5,-169"/>
<text text-anchor="start" x="832" y="-176.8" font-family="arial" font-size="14.00">3V3</text>
<polygon fill="none" stroke="black" points="741.5,-146 741.5,-169 797.5,-169 797.5,-146 741.5,-146"/>
<text text-anchor="start" x="765.5" y="-153.8" font-family="arial" font-size="14.00">3</text>
<polygon fill="none" stroke="black" points="797.5,-146 797.5,-169 891.5,-169 891.5,-146 797.5,-146"/>
<text text-anchor="start" x="829" y="-153.8" font-family="arial" font-size="14.00">GND</text>
<polygon fill="none" stroke="black" points="741.5,-123 741.5,-146 797.5,-146 797.5,-123 741.5,-123"/>
<text text-anchor="start" x="765.5" y="-130.8" font-family="arial" font-size="14.00">4</text>
<polygon fill="none" stroke="black" points="797.5,-123 797.5,-146 891.5,-146 891.5,-123 797.5,-123"/>
<text text-anchor="start" x="830.5" y="-130.8" font-family="arial" font-size="14.00">SCK</text>
<polygon fill="none" stroke="black" points="741.5,-100 741.5,-123 797.5,-123 797.5,-100 741.5,-100"/>
<text text-anchor="start" x="765.5" y="-107.8" font-family="arial" font-size="14.00">5</text>
<polygon fill="none" stroke="black" points="797.5,-100 797.5,-123 891.5,-123 891.5,-100 797.5,-100"/>
<text text-anchor="start" x="826" y="-107.8" font-family="arial" font-size="14.00">MISO</text>
<polygon fill="none" stroke="black" points="741.5,-77 741.5,-100 797.5,-100 797.5,-77 741.5,-77"/>
<text text-anchor="start" x="765.5" y="-84.8" font-family="arial" font-size="14.00">6</text>
<polygon fill="none" stroke="black" points="797.5,-77 797.5,-100 891.5,-100 891.5,-77 797.5,-77"/>
<text text-anchor="start" x="826" y="-84.8" font-family="arial" font-size="14.00">MOSI</text>
<polygon fill="none" stroke="black" points="741.5,-54 741.5,-77 797.5,-77 797.5,-54 741.5,-54"/>
<text text-anchor="start" x="765.5" y="-61.8" font-family="arial" font-size="14.00">7</text>
<polygon fill="none" stroke="black" points="797.5,-54 797.5,-77 891.5,-77 891.5,-54 797.5,-54"/>
<text text-anchor="start" x="835" y="-61.8" font-family="arial" font-size="14.00">CS</text>
<polygon fill="none" stroke="black" points="741.5,-31 741.5,-54 797.5,-54 797.5,-31 741.5,-31"/>
<text text-anchor="start" x="765.5" y="-38.8" font-family="arial" font-size="14.00">8</text>
<polygon fill="none" stroke="black" points="797.5,-31 797.5,-54 891.5,-54 891.5,-31 797.5,-31"/>
<text text-anchor="start" x="829" y="-38.8" font-family="arial" font-size="14.00">nWP</text>
<polygon fill="none" stroke="black" points="741.5,-8 741.5,-31 797.5,-31 797.5,-8 741.5,-8"/>
<text text-anchor="start" x="765.5" y="-15.8" font-family="arial" font-size="14.00">9</text>
<polygon fill="none" stroke="black" points="797.5,-8 797.5,-31 891.5,-31 891.5,-8 797.5,-8"/>
<text text-anchor="start" x="821.5" y="-15.8" font-family="arial" font-size="14.00">nHOLD</text>
</g>
<!-- CN10 -->
<g id="node3" class="node">
<title>CN10</title>
<polygon fill="#ffffff" stroke="black" points="155.5,-613 5.5,-613 5.5,-429 155.5,-429 155.5,-613"/>
<polygon fill="none" stroke="black" points="5.5,-590 5.5,-613 155.5,-613 155.5,-590 5.5,-590"/>
<text text-anchor="start" x="63" y="-597.8" font-family="arial" font-size="14.00">CN10</text>
<polygon fill="none" stroke="black" points="5.5,-567 5.5,-590 77.5,-590 77.5,-567 5.5,-567"/>
<text text-anchor="start" x="9.5" y="-574.8" font-family="arial" font-size="14.00">PinHeader</text>
<polygon fill="none" stroke="black" points="77.5,-567 77.5,-590 116.5,-590 116.5,-567 77.5,-567"/>
<text text-anchor="start" x="81.5" y="-574.8" font-family="arial" font-size="14.00">male</text>
<polygon fill="none" stroke="black" points="116.5,-567 116.5,-590 155.5,-590 155.5,-567 116.5,-567"/>
<text text-anchor="start" x="120.5" y="-574.8" font-family="arial" font-size="14.00">6&#45;pin</text>
<polygon fill="none" stroke="black" points="5.5,-544 5.5,-567 92.5,-567 92.5,-544 5.5,-544"/>
<text text-anchor="start" x="35" y="-551.8" font-family="arial" font-size="14.00">TXC</text>
<polygon fill="none" stroke="black" points="92.5,-544 92.5,-567 155.5,-567 155.5,-544 92.5,-544"/>
<text text-anchor="start" x="120" y="-551.8" font-family="arial" font-size="14.00">1</text>
<polygon fill="none" stroke="black" points="5.5,-521 5.5,-544 92.5,-544 92.5,-521 5.5,-521"/>
<text text-anchor="start" x="34.5" y="-528.8" font-family="arial" font-size="14.00">RXC</text>
<polygon fill="none" stroke="black" points="92.5,-521 92.5,-544 155.5,-544 155.5,-521 92.5,-521"/>
<text text-anchor="start" x="120" y="-528.8" font-family="arial" font-size="14.00">2</text>
<polygon fill="none" stroke="black" points="5.5,-498 5.5,-521 92.5,-521 92.5,-498 5.5,-498"/>
<text text-anchor="start" x="35.5" y="-505.8" font-family="arial" font-size="14.00">SCL</text>
<polygon fill="none" stroke="black" points="92.5,-498 92.5,-521 155.5,-521 155.5,-498 92.5,-498"/>
<text text-anchor="start" x="120" y="-505.8" font-family="arial" font-size="14.00">3</text>
<polygon fill="none" stroke="black" points="5.5,-475 5.5,-498 92.5,-498 92.5,-475 5.5,-475"/>
<text text-anchor="start" x="35" y="-482.8" font-family="arial" font-size="14.00">SDA</text>
<polygon fill="none" stroke="black" points="92.5,-475 92.5,-498 155.5,-498 155.5,-475 92.5,-475"/>
<text text-anchor="start" x="120" y="-482.8" font-family="arial" font-size="14.00">4</text>
<polygon fill="none" stroke="black" points="5.5,-452 5.5,-475 92.5,-475 92.5,-452 5.5,-452"/>
<text text-anchor="start" x="34.5" y="-459.8" font-family="arial" font-size="14.00">VCC</text>
<polygon fill="none" stroke="black" points="92.5,-452 92.5,-475 155.5,-475 155.5,-452 92.5,-452"/>
<text text-anchor="start" x="120" y="-459.8" font-family="arial" font-size="14.00">5</text>
<polygon fill="none" stroke="black" points="5.5,-429 5.5,-452 92.5,-452 92.5,-429 5.5,-429"/>
<text text-anchor="start" x="33.5" y="-436.8" font-family="arial" font-size="14.00">GND</text>
<polygon fill="none" stroke="black" points="92.5,-429 92.5,-452 155.5,-452 155.5,-429 92.5,-429"/>
<text text-anchor="start" x="120" y="-436.8" font-family="arial" font-size="14.00">6</text>
</g>
<!-- W2 -->
<g id="node7" class="node">
<title>W2</title>
<polygon fill="#ffffff" stroke="black" stroke-dasharray="5,2" points="566,-482 331,-482 331,-298 566,-298 566,-482"/>
<polygon fill="none" stroke="black" points="331.5,-459 331.5,-482 566.5,-482 566.5,-459 331.5,-459"/>
<text text-anchor="start" x="438" y="-466.8" font-family="arial" font-size="14.00">W2</text>
<polygon fill="none" stroke="black" points="331.5,-436 331.5,-459 388.5,-459 388.5,-436 331.5,-436"/>
<text text-anchor="start" x="352.5" y="-443.8" font-family="arial" font-size="14.00">4x</text>
<polygon fill="none" stroke="black" points="388.5,-436 388.5,-459 489.5,-459 489.5,-436 388.5,-436"/>
<text text-anchor="start" x="409.5" y="-443.8" font-family="arial" font-size="14.00">0.25 mm²</text>
<polygon fill="none" stroke="black" points="489.5,-436 489.5,-459 566.5,-459 566.5,-436 489.5,-436"/>
<text text-anchor="start" x="510.5" y="-443.8" font-family="arial" font-size="14.00">0.2 m</text>
<text text-anchor="start" x="372" y="-422.8" font-family="arial" font-size="14.00"> </text>
<text text-anchor="start" x="333.5" y="-403.8" font-family="arial" font-size="14.00">CN10:6:GND</text>
<text text-anchor="start" x="419.5" y="-403.8" font-family="arial" font-size="14.00"> &#160;&#160;&#160;&#160;BK &#160;&#160;&#160;</text>
<text text-anchor="start" x="476.5" y="-403.8" font-family="arial" font-size="14.00">QWIIC:1:GND</text>
<polygon fill="#000000" stroke="transparent" points="331.5,-396 331.5,-398 566.5,-398 566.5,-396 331.5,-396"/>
<polygon fill="#000000" stroke="transparent" points="331.5,-394 331.5,-396 566.5,-396 566.5,-394 331.5,-394"/>
<polygon fill="#000000" stroke="transparent" points="331.5,-392 331.5,-394 566.5,-394 566.5,-392 331.5,-392"/>
<text text-anchor="start" x="334.5" y="-378.8" font-family="arial" font-size="14.00">CN10:5:VCC</text>
<text text-anchor="start" x="418.5" y="-378.8" font-family="arial" font-size="14.00"> &#160;&#160;&#160;&#160;RD &#160;&#160;&#160;</text>
<text text-anchor="start" x="477.5" y="-378.8" font-family="arial" font-size="14.00">QWIIC:2:VCC</text>
<polygon fill="#000000" stroke="transparent" points="331.5,-371 331.5,-373 566.5,-373 566.5,-371 331.5,-371"/>
<polygon fill="#ff0000" stroke="transparent" points="331.5,-369 331.5,-371 566.5,-371 566.5,-369 331.5,-369"/>
<polygon fill="#000000" stroke="transparent" points="331.5,-367 331.5,-369 566.5,-369 566.5,-367 331.5,-367"/>
<text text-anchor="start" x="335" y="-353.8" font-family="arial" font-size="14.00">CN10:4:SDA</text>
<text text-anchor="start" x="419" y="-353.8" font-family="arial" font-size="14.00"> &#160;&#160;&#160;&#160;BU &#160;&#160;&#160;</text>
<text text-anchor="start" x="478" y="-353.8" font-family="arial" font-size="14.00">QWIIC:3:SDA</text>
<polygon fill="#000000" stroke="transparent" points="331.5,-346 331.5,-348 566.5,-348 566.5,-346 331.5,-346"/>
<polygon fill="#0066ff" stroke="transparent" points="331.5,-344 331.5,-346 566.5,-346 566.5,-344 331.5,-344"/>
<polygon fill="#000000" stroke="transparent" points="331.5,-342 331.5,-344 566.5,-344 566.5,-342 331.5,-342"/>
<text text-anchor="start" x="336" y="-328.8" font-family="arial" font-size="14.00">CN10:3:SCL</text>
<text text-anchor="start" x="419.5" y="-328.8" font-family="arial" font-size="14.00"> &#160;&#160;&#160;&#160;YE &#160;&#160;&#160;</text>
<text text-anchor="start" x="478.5" y="-328.8" font-family="arial" font-size="14.00">QWIIC:4:SCL</text>
<polygon fill="#000000" stroke="transparent" points="331.5,-321 331.5,-323 566.5,-323 566.5,-321 331.5,-321"/>
<polygon fill="#ffff00" stroke="transparent" points="331.5,-319 331.5,-321 566.5,-321 566.5,-319 331.5,-319"/>
<polygon fill="#000000" stroke="transparent" points="331.5,-317 331.5,-319 566.5,-319 566.5,-317 331.5,-317"/>
<text text-anchor="start" x="372" y="-303.8" font-family="arial" font-size="14.00"> </text>
</g>
<!-- CN10&#45;&#45;W2 -->
<g id="edge14" class="edge">
<title>CN10:e&#45;&#45;W2:w</title>
<path fill="none" stroke="#000000" stroke-width="2" d="M156.5,-438C234.47,-439.4 248.72,-394.4 330.5,-393"/>
<path fill="none" stroke="#000000" stroke-width="2" d="M156.5,-440C236.38,-440 250.62,-395 330.5,-395"/>
<path fill="none" stroke="#000000" stroke-width="2" d="M156.5,-442C238.28,-440.6 252.53,-395.6 330.5,-397"/>
</g>
<!-- CN10&#45;&#45;W2 -->
<g id="edge16" class="edge">
<title>CN10:e&#45;&#45;W2:w</title>
<path fill="none" stroke="#000000" stroke-width="2" d="M156.5,-461C242.19,-463.03 240.81,-370.03 330.5,-368"/>
<path fill="none" stroke="#ff0000" stroke-width="2" d="M156.5,-463C244.19,-463 242.81,-370 330.5,-370"/>
<path fill="none" stroke="#000000" stroke-width="2" d="M156.5,-465C246.19,-462.97 244.81,-369.97 330.5,-372"/>
</g>
<!-- CN10&#45;&#45;W2 -->
<g id="edge18" class="edge">
<title>CN10:e&#45;&#45;W2:w</title>
<path fill="none" stroke="#000000" stroke-width="2" d="M156.5,-484C254.07,-486.35 228.99,-345.35 330.5,-343"/>
<path fill="none" stroke="#0066ff" stroke-width="2" d="M156.5,-486C256.04,-486 230.96,-345 330.5,-345"/>
<path fill="none" stroke="#000000" stroke-width="2" d="M156.5,-488C258.01,-485.65 232.93,-344.65 330.5,-347"/>
</g>
<!-- CN10&#45;&#45;W2 -->
<g id="edge20" class="edge">
<title>CN10:e&#45;&#45;W2:w</title>
<path fill="none" stroke="#000000" stroke-width="2" d="M156.5,-507C268.76,-509.55 214.4,-320.55 330.5,-318"/>
<path fill="none" stroke="#ffff00" stroke-width="2" d="M156.5,-509C270.68,-509 216.32,-320 330.5,-320"/>
<path fill="none" stroke="#000000" stroke-width="2" d="M156.5,-511C272.6,-508.45 218.24,-319.45 330.5,-322"/>
</g>
<!-- W3 -->
<g id="node8" class="node">
<title>W3</title>
<polygon fill="#ffffff" stroke="black" points="566,-690 331,-690 331,-506 566,-506 566,-690"/>
<polygon fill="none" stroke="black" points="331.5,-667 331.5,-690 566.5,-690 566.5,-667 331.5,-667"/>
<text text-anchor="start" x="438" y="-674.8" font-family="arial" font-size="14.00">W3</text>
<polygon fill="none" stroke="black" points="331.5,-644 331.5,-667 388.5,-667 388.5,-644 331.5,-644"/>
<text text-anchor="start" x="352.5" y="-651.8" font-family="arial" font-size="14.00">4x</text>
<polygon fill="none" stroke="black" points="388.5,-644 388.5,-667 489.5,-667 489.5,-644 388.5,-644"/>
<text text-anchor="start" x="409.5" y="-651.8" font-family="arial" font-size="14.00">0.25 mm²</text>
<polygon fill="none" stroke="black" points="489.5,-644 489.5,-667 566.5,-667 566.5,-644 489.5,-644"/>
<text text-anchor="start" x="510.5" y="-651.8" font-family="arial" font-size="14.00">0.2 m</text>
<text text-anchor="start" x="372" y="-630.8" font-family="arial" font-size="14.00"> </text>
<text text-anchor="start" x="335.5" y="-611.8" font-family="arial" font-size="14.00">CN10:1:TXC</text>
<text text-anchor="start" x="418.5" y="-611.8" font-family="arial" font-size="14.00"> &#160;&#160;&#160;&#160;1:GN &#160;&#160;&#160;</text>
<text text-anchor="start" x="491.5" y="-611.8" font-family="arial" font-size="14.00">CAN:1:TXC</text>
<polygon fill="#000000" stroke="transparent" points="331.5,-604 331.5,-606 566.5,-606 566.5,-604 331.5,-604"/>
<polygon fill="#00ff00" stroke="transparent" points="331.5,-602 331.5,-604 566.5,-604 566.5,-602 331.5,-602"/>
<polygon fill="#000000" stroke="transparent" points="331.5,-600 331.5,-602 566.5,-602 566.5,-600 331.5,-600"/>
<text text-anchor="start" x="334.5" y="-586.8" font-family="arial" font-size="14.00">CN10:2:RXC</text>
<text text-anchor="start" x="420" y="-586.8" font-family="arial" font-size="14.00"> &#160;&#160;&#160;&#160;2:YE &#160;&#160;&#160;</text>
<text text-anchor="start" x="490.5" y="-586.8" font-family="arial" font-size="14.00">CAN:2:RXC</text>
<polygon fill="#000000" stroke="transparent" points="331.5,-579 331.5,-581 566.5,-581 566.5,-579 331.5,-579"/>
<polygon fill="#ffff00" stroke="transparent" points="331.5,-577 331.5,-579 566.5,-579 566.5,-577 331.5,-577"/>
<polygon fill="#000000" stroke="transparent" points="331.5,-575 331.5,-577 566.5,-577 566.5,-575 331.5,-575"/>
<text text-anchor="start" x="333.5" y="-561.8" font-family="arial" font-size="14.00">CN10:6:GND</text>
<text text-anchor="start" x="420" y="-561.8" font-family="arial" font-size="14.00"> &#160;&#160;&#160;&#160;3:BU &#160;&#160;&#160;</text>
<text text-anchor="start" x="489.5" y="-561.8" font-family="arial" font-size="14.00">CAN:3:GND</text>
<polygon fill="#000000" stroke="transparent" points="331.5,-554 331.5,-556 566.5,-556 566.5,-554 331.5,-554"/>
<polygon fill="#0066ff" stroke="transparent" points="331.5,-552 331.5,-554 566.5,-554 566.5,-552 331.5,-552"/>
<polygon fill="#000000" stroke="transparent" points="331.5,-550 331.5,-552 566.5,-552 566.5,-550 331.5,-550"/>
<text text-anchor="start" x="334.5" y="-536.8" font-family="arial" font-size="14.00">CN10:5:VCC</text>
<text text-anchor="start" x="419.5" y="-536.8" font-family="arial" font-size="14.00"> &#160;&#160;&#160;&#160;4:RD &#160;&#160;&#160;</text>
<text text-anchor="start" x="490.5" y="-536.8" font-family="arial" font-size="14.00">CAN:4:VCC</text>
<polygon fill="#000000" stroke="transparent" points="331.5,-529 331.5,-531 566.5,-531 566.5,-529 331.5,-529"/>
<polygon fill="#ff0000" stroke="transparent" points="331.5,-527 331.5,-529 566.5,-529 566.5,-527 331.5,-527"/>
<polygon fill="#000000" stroke="transparent" points="331.5,-525 331.5,-527 566.5,-527 566.5,-525 331.5,-525"/>
<text text-anchor="start" x="372" y="-511.8" font-family="arial" font-size="14.00"> </text>
</g>
<!-- CN10&#45;&#45;W3 -->
<g id="edge22" class="edge">
<title>CN10:e&#45;&#45;W3:w</title>
<path fill="none" stroke="#000000" stroke-width="2" d="M156.5,-554C238.52,-555.44 252.31,-602.44 330.5,-601"/>
<path fill="none" stroke="#00ff00" stroke-width="2" d="M156.5,-556C236.6,-556 250.4,-603 330.5,-603"/>
<path fill="none" stroke="#000000" stroke-width="2" d="M156.5,-558C234.69,-556.56 248.48,-603.56 330.5,-605"/>
</g>
<!-- CN10&#45;&#45;W3 -->
<g id="edge24" class="edge">
<title>CN10:e&#45;&#45;W3:w</title>
<path fill="none" stroke="#000000" stroke-width="2" d="M156.5,-531C238.28,-532.4 252.53,-577.4 330.5,-576"/>
<path fill="none" stroke="#ffff00" stroke-width="2" d="M156.5,-533C236.38,-533 250.62,-578 330.5,-578"/>
<path fill="none" stroke="#000000" stroke-width="2" d="M156.5,-535C234.47,-533.6 248.72,-578.6 330.5,-580"/>
</g>
<!-- CN10&#45;&#45;W3 -->
<g id="edge26" class="edge">
<title>CN10:e&#45;&#45;W3:w</title>
<path fill="none" stroke="#000000" stroke-width="2" d="M156.5,-438C250.7,-440.18 240.28,-553.18 330.5,-551"/>
<path fill="none" stroke="#0066ff" stroke-width="2" d="M156.5,-440C248.71,-440 238.29,-553 330.5,-553"/>
<path fill="none" stroke="#000000" stroke-width="2" d="M156.5,-442C246.72,-439.82 236.3,-552.82 330.5,-555"/>
</g>
<!-- CN10&#45;&#45;W3 -->
<g id="edge28" class="edge">
<title>CN10:e&#45;&#45;W3:w</title>
<path fill="none" stroke="#000000" stroke-width="2" d="M156.5,-461C241.03,-462.73 249.93,-527.73 330.5,-526"/>
<path fill="none" stroke="#ff0000" stroke-width="2" d="M156.5,-463C239.05,-463 247.95,-528 330.5,-528"/>
<path fill="none" stroke="#000000" stroke-width="2" d="M156.5,-465C237.07,-463.27 245.97,-528.27 330.5,-530"/>
</g>
<!-- QWIIC -->
<g id="node4" class="node">
<title>QWIIC</title>
<polygon fill="#ffffff" stroke="black" points="877.5,-450 755.5,-450 755.5,-312 877.5,-312 877.5,-450"/>
<polygon fill="none" stroke="black" points="755.5,-427 755.5,-450 877.5,-450 877.5,-427 755.5,-427"/>
<text text-anchor="start" x="795" y="-434.8" font-family="arial" font-size="14.00">QWIIC</text>
<polygon fill="none" stroke="black" points="755.5,-404 755.5,-427 788.5,-427 788.5,-404 755.5,-404"/>
<text text-anchor="start" x="759.5" y="-411.8" font-family="arial" font-size="14.00">JST</text>
<polygon fill="none" stroke="black" points="788.5,-404 788.5,-427 838.5,-427 838.5,-404 788.5,-404"/>
<text text-anchor="start" x="792.5" y="-411.8" font-family="arial" font-size="14.00">female</text>
<polygon fill="none" stroke="black" points="838.5,-404 838.5,-427 877.5,-427 877.5,-404 838.5,-404"/>
<text text-anchor="start" x="842.5" y="-411.8" font-family="arial" font-size="14.00">4&#45;pin</text>
<polygon fill="none" stroke="black" points="755.5,-381 755.5,-404 805.5,-404 805.5,-381 755.5,-381"/>
<text text-anchor="start" x="776.5" y="-388.8" font-family="arial" font-size="14.00">1</text>
<polygon fill="none" stroke="black" points="805.5,-381 805.5,-404 877.5,-404 877.5,-381 805.5,-381"/>
<text text-anchor="start" x="826" y="-388.8" font-family="arial" font-size="14.00">GND</text>
<polygon fill="none" stroke="black" points="755.5,-358 755.5,-381 805.5,-381 805.5,-358 755.5,-358"/>
<text text-anchor="start" x="776.5" y="-365.8" font-family="arial" font-size="14.00">2</text>
<polygon fill="none" stroke="black" points="805.5,-358 805.5,-381 877.5,-381 877.5,-358 805.5,-358"/>
<text text-anchor="start" x="827" y="-365.8" font-family="arial" font-size="14.00">VCC</text>
<polygon fill="none" stroke="black" points="755.5,-335 755.5,-358 805.5,-358 805.5,-335 755.5,-335"/>
<text text-anchor="start" x="776.5" y="-342.8" font-family="arial" font-size="14.00">3</text>
<polygon fill="none" stroke="black" points="805.5,-335 805.5,-358 877.5,-358 877.5,-335 805.5,-335"/>
<text text-anchor="start" x="827.5" y="-342.8" font-family="arial" font-size="14.00">SDA</text>
<polygon fill="none" stroke="black" points="755.5,-312 755.5,-335 805.5,-335 805.5,-312 755.5,-312"/>
<text text-anchor="start" x="776.5" y="-319.8" font-family="arial" font-size="14.00">4</text>
<polygon fill="none" stroke="black" points="805.5,-312 805.5,-335 877.5,-335 877.5,-312 805.5,-312"/>
<text text-anchor="start" x="828" y="-319.8" font-family="arial" font-size="14.00">SCL</text>
</g>
<!-- CAN -->
<g id="node5" class="node">
<title>CAN</title>
<polygon fill="#ffffff" stroke="black" points="897,-658 736,-658 736,-520 897,-520 897,-658"/>
<polygon fill="none" stroke="black" points="736.5,-635 736.5,-658 897.5,-658 897.5,-635 736.5,-635"/>
<text text-anchor="start" x="802.5" y="-642.8" font-family="arial" font-size="14.00">CAN</text>
<polygon fill="none" stroke="black" points="736.5,-612 736.5,-635 808.5,-635 808.5,-612 736.5,-612"/>
<text text-anchor="start" x="740.5" y="-619.8" font-family="arial" font-size="14.00">PinHeader</text>
<polygon fill="none" stroke="black" points="808.5,-612 808.5,-635 858.5,-635 858.5,-612 808.5,-612"/>
<text text-anchor="start" x="812.5" y="-619.8" font-family="arial" font-size="14.00">female</text>
<polygon fill="none" stroke="black" points="858.5,-612 858.5,-635 897.5,-635 897.5,-612 858.5,-612"/>
<text text-anchor="start" x="862.5" y="-619.8" font-family="arial" font-size="14.00">4&#45;pin</text>
<polygon fill="none" stroke="black" points="736.5,-589 736.5,-612 805.5,-612 805.5,-589 736.5,-589"/>
<text text-anchor="start" x="767" y="-596.8" font-family="arial" font-size="14.00">1</text>
<polygon fill="none" stroke="black" points="805.5,-589 805.5,-612 897.5,-612 897.5,-589 805.5,-589"/>
<text text-anchor="start" x="837.5" y="-596.8" font-family="arial" font-size="14.00">TXC</text>
<polygon fill="none" stroke="black" points="736.5,-566 736.5,-589 805.5,-589 805.5,-566 736.5,-566"/>
<text text-anchor="start" x="767" y="-573.8" font-family="arial" font-size="14.00">2</text>
<polygon fill="none" stroke="black" points="805.5,-566 805.5,-589 897.5,-589 897.5,-566 805.5,-566"/>
<text text-anchor="start" x="837" y="-573.8" font-family="arial" font-size="14.00">RXC</text>
<polygon fill="none" stroke="black" points="736.5,-543 736.5,-566 805.5,-566 805.5,-543 736.5,-543"/>
<text text-anchor="start" x="767" y="-550.8" font-family="arial" font-size="14.00">3</text>
<polygon fill="none" stroke="black" points="805.5,-543 805.5,-566 897.5,-566 897.5,-543 805.5,-543"/>
<text text-anchor="start" x="836" y="-550.8" font-family="arial" font-size="14.00">GND</text>
<polygon fill="none" stroke="black" points="736.5,-520 736.5,-543 805.5,-543 805.5,-520 736.5,-520"/>
<text text-anchor="start" x="767" y="-527.8" font-family="arial" font-size="14.00">4</text>
<polygon fill="none" stroke="black" points="805.5,-520 805.5,-543 897.5,-543 897.5,-520 805.5,-520"/>
<text text-anchor="start" x="837" y="-527.8" font-family="arial" font-size="14.00">VCC</text>
</g>
<!-- W1&#45;&#45;FRAM -->
<g id="edge2" class="edge">
<title>W1:e&#45;&#45;FRAM:w</title>
<path fill="none" stroke="#000000" stroke-width="2" d="M592,-185C659.9,-185.65 675.54,-202.65 740.5,-202"/>
<path fill="none" stroke="#ffffff" stroke-width="2" d="M592,-187C658.43,-187 674.07,-204 740.5,-204"/>
<path fill="none" stroke="#000000" stroke-width="2" d="M592,-189C656.96,-188.35 672.6,-205.35 740.5,-206"/>
</g>
<!-- W1&#45;&#45;FRAM -->
<g id="edge4" class="edge">
<title>W1:e&#45;&#45;FRAM:w</title>
<path fill="none" stroke="#000000" stroke-width="2" d="M592,-160C657.55,-160.06 674,-156.06 740.5,-156"/>
<path fill="none" stroke="#895956" stroke-width="2" d="M592,-162C658.02,-162 674.48,-158 740.5,-158"/>
<path fill="none" stroke="#000000" stroke-width="2" d="M592,-164C658.5,-163.94 674.95,-159.94 740.5,-160"/>
</g>
<!-- W1&#45;&#45;FRAM -->
<g id="edge6" class="edge">
<title>W1:e&#45;&#45;FRAM:w</title>
<path fill="none" stroke="#000000" stroke-width="2" d="M592,-135C657.66,-135.03 674.13,-132.03 740.5,-132"/>
<path fill="none" stroke="#00ff00" stroke-width="2" d="M592,-137C658.01,-137 674.49,-134 740.5,-134"/>
<path fill="none" stroke="#000000" stroke-width="2" d="M592,-139C658.37,-138.97 674.84,-135.97 740.5,-136"/>
</g>
<!-- W1&#45;&#45;FRAM -->
<g id="edge8" class="edge">
<title>W1:e&#45;&#45;FRAM:w</title>
<path fill="none" stroke="#000000" stroke-width="2" d="M592,-110C657.88,-110 674.38,-109 740.5,-109"/>
<path fill="none" stroke="#ffff00" stroke-width="2" d="M592,-112C658,-112 674.5,-111 740.5,-111"/>
<path fill="none" stroke="#000000" stroke-width="2" d="M592,-114C658.12,-114 674.62,-113 740.5,-113"/>
</g>
<!-- W1&#45;&#45;FRAM -->
<g id="edge10" class="edge">
<title>W1:e&#45;&#45;FRAM:w</title>
<path fill="none" stroke="#000000" stroke-width="2" d="M592,-85C658.12,-85 674.62,-86 740.5,-86"/>
<path fill="none" stroke="#999999" stroke-width="2" d="M592,-87C658,-87 674.5,-88 740.5,-88"/>
<path fill="none" stroke="#000000" stroke-width="2" d="M592,-89C657.88,-89 674.38,-90 740.5,-90"/>
</g>
<!-- W1&#45;&#45;FRAM -->
<g id="edge12" class="edge">
<title>W1:e&#45;&#45;FRAM:w</title>
<path fill="none" stroke="#000000" stroke-width="2" d="M592,-60C658.37,-60.03 674.84,-63.03 740.5,-63"/>
<path fill="none" stroke="#ff66cc" stroke-width="2" d="M592,-62C658.01,-62 674.49,-65 740.5,-65"/>
<path fill="none" stroke="#000000" stroke-width="2" d="M592,-64C657.66,-63.97 674.13,-66.97 740.5,-67"/>
</g>
<!-- W2&#45;&#45;QWIIC -->
<g id="edge15" class="edge">
<title>W2:e&#45;&#45;QWIIC:w</title>
<path fill="none" stroke="#000000" stroke-width="2" d="M567.5,-393C650.42,-393.01 671.19,-391.01 754.5,-391"/>
<path fill="none" stroke="#000000" stroke-width="2" d="M567.5,-395C650.62,-395 671.38,-393 754.5,-393"/>
<path fill="none" stroke="#000000" stroke-width="2" d="M567.5,-397C650.81,-396.99 671.58,-394.99 754.5,-395"/>
</g>
<!-- W2&#45;&#45;QWIIC -->
<g id="edge17" class="edge">
<title>W2:e&#45;&#45;QWIIC:w</title>
<path fill="none" stroke="#000000" stroke-width="2" d="M567.5,-368C650.52,-368 671.29,-367 754.5,-367"/>
<path fill="none" stroke="#ff0000" stroke-width="2" d="M567.5,-370C650.61,-370 671.39,-369 754.5,-369"/>
<path fill="none" stroke="#000000" stroke-width="2" d="M567.5,-372C650.71,-372 671.48,-371 754.5,-371"/>
</g>
<!-- W2&#45;&#45;QWIIC -->
<g id="edge19" class="edge">
<title>W2:e&#45;&#45;QWIIC:w</title>
<path fill="none" stroke="#000000" stroke-width="2" d="M567.5,-343C650.71,-343 671.48,-344 754.5,-344"/>
<path fill="none" stroke="#0066ff" stroke-width="2" d="M567.5,-345C650.61,-345 671.39,-346 754.5,-346"/>
<path fill="none" stroke="#000000" stroke-width="2" d="M567.5,-347C650.52,-347 671.29,-348 754.5,-348"/>
</g>
<!-- W2&#45;&#45;QWIIC -->
<g id="edge21" class="edge">
<title>W2:e&#45;&#45;QWIIC:w</title>
<path fill="none" stroke="#000000" stroke-width="2" d="M567.5,-318C650.91,-318.02 671.66,-321.02 754.5,-321"/>
<path fill="none" stroke="#ffff00" stroke-width="2" d="M567.5,-320C650.62,-320 671.38,-323 754.5,-323"/>
<path fill="none" stroke="#000000" stroke-width="2" d="M567.5,-322C650.34,-321.98 671.09,-324.98 754.5,-325"/>
</g>
<!-- W3&#45;&#45;CAN -->
<g id="edge23" class="edge">
<title>W3:e&#45;&#45;CAN:w</title>
<path fill="none" stroke="#000000" stroke-width="2" d="M567.5,-601C642.18,-601.01 660.89,-599.01 736,-599"/>
<path fill="none" stroke="#00ff00" stroke-width="2" d="M567.5,-603C642.39,-603 661.11,-601 736,-601"/>
<path fill="none" stroke="#000000" stroke-width="2" d="M567.5,-605C642.61,-604.99 661.32,-602.99 736,-603"/>
</g>
<!-- W3&#45;&#45;CAN -->
<g id="edge25" class="edge">
<title>W3:e&#45;&#45;CAN:w</title>
<path fill="none" stroke="#000000" stroke-width="2" d="M567.5,-576C642.28,-576 661,-575 736,-575"/>
<path fill="none" stroke="#ffff00" stroke-width="2" d="M567.5,-578C642.39,-578 661.11,-577 736,-577"/>
<path fill="none" stroke="#000000" stroke-width="2" d="M567.5,-580C642.5,-580 661.22,-579 736,-579"/>
</g>
<!-- W3&#45;&#45;CAN -->
<g id="edge27" class="edge">
<title>W3:e&#45;&#45;CAN:w</title>
<path fill="none" stroke="#000000" stroke-width="2" d="M567.5,-551C642.5,-551 661.22,-552 736,-552"/>
<path fill="none" stroke="#0066ff" stroke-width="2" d="M567.5,-553C642.39,-553 661.11,-554 736,-554"/>
<path fill="none" stroke="#000000" stroke-width="2" d="M567.5,-555C642.28,-555 661,-556 736,-556"/>
</g>
<!-- W3&#45;&#45;CAN -->
<g id="edge29" class="edge">
<title>W3:e&#45;&#45;CAN:w</title>
<path fill="none" stroke="#000000" stroke-width="2" d="M567.5,-526C642.72,-526.03 661.42,-529.03 736,-529"/>
<path fill="none" stroke="#ff0000" stroke-width="2" d="M567.5,-528C642.4,-528 661.1,-531 736,-531"/>
<path fill="none" stroke="#000000" stroke-width="2" d="M567.5,-530C642.08,-529.97 660.78,-532.97 736,-533"/>
</g>
</g>
</svg>
